<svg width="242" height="27" viewBox="0 0 242 27" fill="none" xmlns="http://www.w3.org/2000/svg">
<path opacity="0.7" d="M203.804 21.4727V19.2692H199.115V18.2316L203.778 11.9287H204.983V18.2316H206.225V19.2692H204.983V21.4727H203.804ZM200.063 18.6799L199.884 18.2316H203.804V12.9792L204.176 13.0817L200.063 18.6799ZM208.373 21.4727L211.666 17.1811L211.896 17.2067C211.768 17.3775 211.627 17.5142 211.474 17.6167C211.32 17.7106 211.149 17.7789 210.961 17.8216C210.782 17.8643 210.585 17.8857 210.372 17.8857C209.808 17.8857 209.3 17.7576 208.847 17.5014C208.403 17.2366 208.049 16.8779 207.784 16.4253C207.528 15.9641 207.4 15.4388 207.4 14.8496C207.4 14.2603 207.537 13.735 207.81 13.2739C208.083 12.8127 208.459 12.4497 208.937 12.1849C209.415 11.9117 209.953 11.775 210.551 11.775C211.166 11.775 211.709 11.9117 212.178 12.1849C212.657 12.4497 213.032 12.8212 213.306 13.2995C213.579 13.7692 213.716 14.3115 213.716 14.9264C213.716 15.2595 213.677 15.5883 213.6 15.9128C213.523 16.2374 213.4 16.5662 213.229 16.8993C213.066 17.2323 212.849 17.5782 212.575 17.9369L209.885 21.4727H208.373ZM210.551 16.784C210.919 16.784 211.243 16.7028 211.525 16.5406C211.815 16.3698 212.042 16.1392 212.204 15.8488C212.366 15.5499 212.447 15.2168 212.447 14.8496C212.447 14.4652 212.362 14.1279 212.191 13.8375C212.029 13.5471 211.807 13.3166 211.525 13.1457C211.243 12.9749 210.919 12.8895 210.551 12.8895C210.193 12.8895 209.872 12.9749 209.591 13.1457C209.309 13.3166 209.082 13.5471 208.912 13.8375C208.749 14.1279 208.668 14.4652 208.668 14.8496C208.668 15.2168 208.749 15.5499 208.912 15.8488C209.074 16.1392 209.296 16.3698 209.578 16.5406C209.868 16.7028 210.193 16.784 210.551 16.784ZM219.053 21.6264C218.293 21.6264 217.627 21.4214 217.054 21.0115C216.491 20.593 216.051 20.0165 215.735 19.282C215.419 18.539 215.261 17.6764 215.261 16.6943C215.261 15.7121 215.419 14.8538 215.735 14.1194C216.051 13.3763 216.491 12.7999 217.054 12.3899C217.618 11.98 218.28 11.775 219.04 11.775C219.8 11.775 220.462 11.98 221.026 12.3899C221.589 12.7999 222.029 13.3763 222.345 14.1194C222.67 14.8538 222.832 15.7121 222.832 16.6943C222.832 17.6764 222.674 18.539 222.358 19.282C222.042 20.0251 221.598 20.6015 221.026 21.0115C220.462 21.4214 219.804 21.6264 219.053 21.6264ZM219.053 20.4606C219.565 20.4606 220.009 20.3069 220.385 19.9994C220.761 19.6834 221.051 19.2436 221.256 18.6799C221.47 18.1163 221.577 17.4544 221.577 16.6943C221.577 15.9342 221.47 15.2723 221.256 14.7086C221.051 14.145 220.757 13.7094 220.372 13.402C219.997 13.0945 219.552 12.9408 219.04 12.9408C218.528 12.9408 218.084 13.0945 217.708 13.402C217.332 13.7094 217.037 14.145 216.824 14.7086C216.619 15.2723 216.516 15.9342 216.516 16.6943C216.516 17.4458 216.619 18.1035 216.824 18.6671C217.037 19.2308 217.332 19.6706 217.708 19.9866C218.092 20.3026 218.54 20.4606 219.053 20.4606ZM228.323 21.6264C227.563 21.6264 226.897 21.4214 226.325 21.0115C225.761 20.593 225.321 20.0165 225.005 19.282C224.689 18.539 224.531 17.6764 224.531 16.6943C224.531 15.7121 224.689 14.8538 225.005 14.1194C225.321 13.3763 225.761 12.7999 226.325 12.3899C226.888 11.98 227.55 11.775 228.31 11.775C229.07 11.775 229.732 11.98 230.296 12.3899C230.86 12.7999 231.299 13.3763 231.615 14.1194C231.94 14.8538 232.102 15.7121 232.102 16.6943C232.102 17.6764 231.944 18.539 231.628 19.282C231.312 20.0251 230.868 20.6015 230.296 21.0115C229.732 21.4214 229.075 21.6264 228.323 21.6264ZM228.323 20.4606C228.835 20.4606 229.28 20.3069 229.655 19.9994C230.031 19.6834 230.322 19.2436 230.526 18.6799C230.74 18.1163 230.847 17.4544 230.847 16.6943C230.847 15.9342 230.74 15.2723 230.526 14.7086C230.322 14.145 230.027 13.7094 229.643 13.402C229.267 13.0945 228.823 12.9408 228.31 12.9408C227.798 12.9408 227.354 13.0945 226.978 13.402C226.602 13.7094 226.308 14.145 226.094 14.7086C225.889 15.2723 225.787 15.9342 225.787 16.6943C225.787 17.4458 225.889 18.1035 226.094 18.6671C226.308 19.2308 226.602 19.6706 226.978 19.9866C227.362 20.3026 227.811 20.4606 228.323 20.4606ZM236.389 21.4727V18.8209H233.737V17.7063H236.389V15.0673H237.504V17.7063H240.143V18.8209H237.504V21.4727H236.389Z" fill="#334155"/>
<path d="M25.8846 9.43555H35.8476V11.2903H31.9248V21.7458H29.7746V11.2903H25.8682L25.8846 9.43555ZM35.4209 12.8332H37.2592V14.5566H37.292C37.3577 14.3104 37.4726 14.0806 37.6367 13.8508C37.8009 13.621 37.9978 13.4076 38.244 13.2271C38.4738 13.0301 38.7364 12.8824 39.0319 12.7675C39.3109 12.6526 39.6064 12.587 39.9018 12.587C40.1316 12.587 40.2957 12.6034 40.3778 12.6034C40.4599 12.6198 40.5583 12.6362 40.6404 12.6362V14.5238C40.5091 14.4909 40.3614 14.4745 40.2137 14.4581C40.0659 14.4417 39.9346 14.4253 39.7869 14.4253C39.4586 14.4253 39.1468 14.4909 38.8513 14.6222C38.5559 14.7536 38.3097 14.9505 38.0799 15.1967C37.8665 15.4593 37.686 15.7712 37.5547 16.1487C37.4233 16.5262 37.3577 16.9694 37.3577 17.4618V21.6965H35.3881L35.4209 12.8332ZM49.6679 21.7458H47.7311V20.4983H47.6983C47.4521 20.9579 47.091 21.3026 46.615 21.5816C46.139 21.8607 45.6466 21.992 45.1542 21.992C43.9888 21.992 43.1353 21.7129 42.6101 21.122C42.0848 20.5476 41.8222 19.6612 41.8222 18.4959V12.8332H43.7918V18.2989C43.7918 19.0868 43.9396 19.6448 44.2514 19.9567C44.5469 20.2849 44.9736 20.4491 45.5153 20.4491C45.9256 20.4491 46.2703 20.3834 46.5493 20.2521C46.8284 20.1208 47.0581 19.9567 47.2223 19.7433C47.4028 19.5299 47.5177 19.2673 47.5998 18.9719C47.6819 18.6764 47.7147 18.3481 47.7147 18.0035V12.8332H49.6843V21.7458H49.6679ZM53.0163 18.8898C53.0819 19.4643 53.2953 19.8582 53.6728 20.1044C54.0503 20.3342 54.5099 20.4491 55.0352 20.4491C55.2157 20.4491 55.4291 20.4327 55.6589 20.3998C55.8887 20.367 56.1185 20.3178 56.3154 20.2357C56.5288 20.1536 56.6929 20.0387 56.8242 19.8746C56.9556 19.7105 57.0212 19.5135 57.0048 19.2673C56.9884 19.0211 56.9063 18.8077 56.7258 18.6436C56.5452 18.4794 56.3318 18.3646 56.0692 18.2497C55.8066 18.1512 55.4947 18.0691 55.15 18.0035C54.8054 17.9378 54.4607 17.8557 54.0996 17.7737C53.7385 17.6916 53.3774 17.5931 53.0327 17.4782C52.688 17.3633 52.3926 17.2156 52.1135 17.0022C51.8509 16.8053 51.6211 16.5591 51.4734 16.2472C51.3093 15.9353 51.2272 15.5742 51.2272 15.1147C51.2272 14.6222 51.3421 14.2283 51.5883 13.9C51.8181 13.5718 52.1299 13.3092 52.491 13.1122C52.8521 12.9152 53.2625 12.7675 53.7057 12.6854C54.1488 12.6034 54.5756 12.5705 54.9695 12.5705C55.4291 12.5705 55.8722 12.6198 56.2826 12.7183C56.6929 12.8168 57.0869 12.9645 57.4151 13.1943C57.7598 13.4076 58.0388 13.7031 58.2522 14.0478C58.482 14.3925 58.6133 14.8192 58.679 15.3116H56.6273C56.5288 14.8356 56.3154 14.5238 55.9871 14.3596C55.6425 14.1955 55.2649 14.1134 54.8218 14.1134C54.6905 14.1134 54.5099 14.1298 54.3294 14.1463C54.1324 14.1791 53.9683 14.2119 53.7877 14.2776C53.6236 14.3432 53.4759 14.4417 53.361 14.5566C53.2461 14.6715 53.1804 14.8356 53.1804 15.0326C53.1804 15.2788 53.2625 15.4593 53.4266 15.6071C53.5908 15.7548 53.8041 15.8697 54.0832 15.9846C54.3458 16.0831 54.6576 16.1651 55.0023 16.2308C55.347 16.2964 55.7081 16.3785 56.0692 16.4606C56.4303 16.5426 56.775 16.6411 57.1197 16.756C57.4644 16.8709 57.7762 17.0186 58.0388 17.232C58.3015 17.429 58.5313 17.6752 58.6954 17.9706C58.8595 18.2661 58.9416 18.6436 58.9416 19.0703C58.9416 19.5956 58.8267 20.0387 58.5805 20.4163C58.3343 20.7774 58.0224 21.0892 57.6449 21.319C57.2674 21.5488 56.8242 21.7129 56.3647 21.8278C55.8887 21.9263 55.4291 21.992 54.9695 21.992C54.4114 21.992 53.8862 21.9263 53.4102 21.795C52.9342 21.6637 52.5075 21.4667 52.1628 21.2205C51.8181 20.9579 51.5391 20.646 51.3421 20.2521C51.1451 19.8746 51.0302 19.415 51.0138 18.8734H52.9999V18.8898H53.0163ZM59.4997 12.8332H60.9933V10.1413H62.9629V12.8167H64.7356V14.2776H62.9629V19.0375C62.9629 19.2509 62.9793 19.415 62.9958 19.5792C63.0122 19.7269 63.0614 19.8582 63.1107 19.9567C63.1763 20.0552 63.2748 20.1372 63.3897 20.1865C63.521 20.2357 63.6851 20.2685 63.9149 20.2685C64.0462 20.2685 64.194 20.2685 64.3253 20.2521C64.4566 20.2357 64.6043 20.2193 64.7356 20.1865V21.7129C64.5222 21.7458 64.3088 21.7622 64.0955 21.7786C63.8821 21.8114 63.6851 21.8114 63.4553 21.8114C62.9301 21.8114 62.5198 21.7622 62.2079 21.6637C61.896 21.5652 61.6498 21.4175 61.4693 21.2369C61.2887 21.04 61.1738 20.8102 61.1082 20.5311C61.0425 20.2521 61.0097 19.9074 60.9933 19.5463V14.294H59.4997V12.8003V12.8332ZM66.1143 12.8332H67.9691V14.0478H68.0019C68.2809 13.5225 68.6585 13.1614 69.1509 12.9316C69.6433 12.7019 70.1685 12.587 70.7594 12.587C71.4652 12.587 72.0725 12.7019 72.5977 12.9645C73.123 13.2107 73.5497 13.5389 73.8944 13.9821C74.2391 14.4089 74.5017 14.9177 74.6658 15.4922C74.83 16.0666 74.9285 16.6904 74.9285 17.3305C74.9285 17.9378 74.8464 18.5123 74.6987 19.0703C74.5345 19.6284 74.3047 20.1372 73.9929 20.564C73.681 20.9907 73.2871 21.3354 72.7947 21.598C72.3023 21.8606 71.7442 21.992 71.0877 21.992C70.8086 21.992 70.5132 21.9591 70.2342 21.9099C69.9551 21.8607 69.6761 21.7786 69.4135 21.6637C69.1509 21.5488 68.9047 21.4011 68.6913 21.2205C68.4615 21.04 68.2809 20.8266 68.1332 20.5968H68.1004V25.0449H66.1308V12.8332H66.1143ZM72.9917 17.2977C72.9917 16.9037 72.9424 16.5098 72.8275 16.1323C72.729 15.7548 72.5649 15.4265 72.3515 15.1311C72.1381 14.8356 71.8755 14.6058 71.5801 14.4253C71.2682 14.2447 70.9071 14.1627 70.5132 14.1627C69.6925 14.1627 69.0688 14.4417 68.642 15.0162C68.2317 15.5907 68.0183 16.3621 68.0183 17.3141C68.0183 17.7737 68.0676 18.184 68.1825 18.5615C68.2974 18.939 68.4451 19.2673 68.6749 19.5463C68.8882 19.8254 69.1509 20.0387 69.4627 20.2029C69.7746 20.367 70.1193 20.4491 70.5296 20.4491C70.9892 20.4491 71.3503 20.3506 71.6621 20.17C71.974 19.9895 72.2202 19.7433 72.4336 19.4643C72.6306 19.1688 72.7783 18.8405 72.8603 18.463C72.9424 18.0691 72.9917 17.6916 72.9917 17.2977ZM76.4549 9.43555H78.4246V11.2903H76.4549V9.43555ZM76.4549 12.8332H78.4246V21.7458H76.4549V12.8332ZM80.1808 9.43555H82.1504V21.7458H80.1808V9.43555ZM88.1578 21.992C87.452 21.992 86.8119 21.8771 86.2539 21.6309C85.6958 21.3847 85.2362 21.0728 84.8423 20.6625C84.4648 20.2521 84.1693 19.7433 83.9724 19.1688C83.7754 18.5943 83.6605 17.9542 83.6605 17.2813C83.6605 16.6083 83.759 15.9846 83.9724 15.4101C84.1693 14.8356 84.4648 14.3432 84.8423 13.9165C85.2198 13.5061 85.6958 13.1779 86.2539 12.9481C86.8119 12.7183 87.452 12.587 88.1578 12.587C88.8636 12.587 89.5037 12.7019 90.0618 12.9481C90.6199 13.1779 91.0795 13.5061 91.4734 13.9165C91.8509 14.3268 92.1463 14.8356 92.3433 15.4101C92.5403 15.9846 92.6552 16.6083 92.6552 17.2813C92.6552 17.9706 92.5567 18.5943 92.3433 19.1688C92.1299 19.7433 91.8509 20.2357 91.4734 20.6625C91.0959 21.0728 90.6199 21.4011 90.0618 21.6309C89.5037 21.8607 88.88 21.992 88.1578 21.992ZM88.1578 20.4327C88.5846 20.4327 88.9785 20.3342 89.2904 20.1536C89.6186 19.9731 89.8648 19.7269 90.0782 19.4314C90.2916 19.136 90.4393 18.7913 90.5378 18.4302C90.6363 18.0527 90.6855 17.6752 90.6855 17.2813C90.6855 16.9037 90.6363 16.5262 90.5378 16.1487C90.4393 15.7712 90.2916 15.4429 90.0782 15.1475C89.8648 14.852 89.6022 14.6222 89.2904 14.4417C88.9621 14.2611 88.5846 14.1627 88.1578 14.1627C87.7311 14.1627 87.3372 14.2611 87.0253 14.4417C86.697 14.6222 86.4508 14.8685 86.2374 15.1475C86.0241 15.4429 85.8763 15.7712 85.7779 16.1487C85.6794 16.5262 85.6301 16.9037 85.6301 17.2813C85.6301 17.6752 85.6794 18.0527 85.7779 18.4302C85.8763 18.8077 86.0241 19.136 86.2374 19.4314C86.4508 19.7269 86.7134 19.9731 87.0253 20.1536C87.3536 20.3506 87.7311 20.4327 88.1578 20.4327ZM93.246 12.8332H94.7397V10.1413H96.7093V12.8167H98.482V14.2776H96.7093V19.0375C96.7093 19.2509 96.7257 19.415 96.7422 19.5792C96.7586 19.7269 96.8078 19.8582 96.857 19.9567C96.9227 20.0552 97.0212 20.1372 97.1361 20.1865C97.2674 20.2357 97.4315 20.2685 97.6613 20.2685C97.7926 20.2685 97.9403 20.2685 98.0717 20.2521C98.203 20.2357 98.3507 20.2193 98.482 20.1865V21.7129C98.2686 21.7458 98.0552 21.7622 97.8419 21.7786C97.6285 21.8114 97.4315 21.8114 97.2017 21.8114C96.6765 21.8114 96.2662 21.7622 95.9543 21.6637C95.6424 21.5652 95.3962 21.4175 95.2157 21.2369C95.0351 21.04 94.9202 20.8102 94.8546 20.5311C94.7889 20.2521 94.7561 19.9074 94.7397 19.5463V14.294H93.246V12.8003V12.8332Z" fill="black"/>
<path d="M23.5864 9.4351H14.5753L11.8014 0.867188L9.01107 9.4351L0 9.41868L7.28764 14.7203L4.49733 23.2882L11.785 17.9866L19.0726 23.2882L16.2987 14.7203L23.5864 9.4351Z" fill="#00B67A"/>
<path d="M16.9228 16.6575L16.2991 14.7207L11.8018 17.987L16.9228 16.6575Z" fill="#005128"/>
<g opacity="0.8">
<path d="M120.066 10.2695C120.323 9.47787 121.443 9.47787 121.701 10.2695L122.62 13.098C122.735 13.452 123.065 13.6917 123.437 13.6917H126.411C127.243 13.6917 127.589 14.7568 126.916 15.2461L124.51 16.9942C124.209 17.213 124.083 17.6008 124.198 17.9549L125.117 20.7833C125.374 21.575 124.468 22.2333 123.795 21.744L121.389 19.9959C121.087 19.7771 120.68 19.7771 120.378 19.9959L117.972 21.744C117.299 22.2333 116.393 21.575 116.65 20.7833L117.569 17.9549C117.684 17.6008 117.558 17.213 117.257 16.9942L114.851 15.2461C114.178 14.7568 114.524 13.6917 115.356 13.6917H118.33C118.702 13.6917 119.032 13.452 119.147 13.098L120.066 10.2695Z" fill="#F59E0B"/>
<path d="M136.046 10.2695C136.303 9.47787 137.423 9.47787 137.68 10.2695L138.599 13.098C138.714 13.452 139.044 13.6917 139.416 13.6917H142.39C143.223 13.6917 143.569 14.7568 142.895 15.2461L140.489 16.9942C140.188 17.213 140.062 17.6008 140.177 17.9549L141.096 20.7833C141.354 21.575 140.447 22.2333 139.774 21.744L137.368 19.9959C137.067 19.7771 136.659 19.7771 136.358 19.9959L133.952 21.744C133.278 22.2333 132.372 21.575 132.63 20.7833L133.549 17.9549C133.664 17.6008 133.538 17.213 133.236 16.9942L130.83 15.2461C130.157 14.7568 130.503 13.6917 131.336 13.6917H134.31C134.682 13.6917 135.012 13.452 135.127 13.098L136.046 10.2695Z" fill="#F59E0B"/>
<path d="M152.024 10.2695C152.281 9.47787 153.401 9.47787 153.659 10.2695L154.578 13.098C154.693 13.452 155.023 13.6917 155.395 13.6917H158.369C159.201 13.6917 159.547 14.7568 158.874 15.2461L156.468 16.9942C156.167 17.213 156.041 17.6008 156.156 17.9549L157.075 20.7833C157.332 21.575 156.426 22.2333 155.753 21.744L153.347 19.9959C153.045 19.7771 152.638 19.7771 152.336 19.9959L149.93 21.744C149.257 22.2333 148.351 21.575 148.608 20.7833L149.527 17.9549C149.642 17.6008 149.516 17.213 149.215 16.9942L146.809 15.2461C146.136 14.7568 146.482 13.6917 147.314 13.6917H150.288C150.66 13.6917 150.99 13.452 151.105 13.098L152.024 10.2695Z" fill="#F59E0B"/>
<path d="M168.004 10.2695C168.261 9.47787 169.381 9.47787 169.638 10.2695L170.557 13.098C170.672 13.452 171.002 13.6917 171.374 13.6917H174.348C175.181 13.6917 175.527 14.7568 174.853 15.2461L172.447 16.9942C172.146 17.213 172.02 17.6008 172.135 17.9549L173.054 20.7833C173.312 21.575 172.405 22.2333 171.732 21.744L169.326 19.9959C169.025 19.7771 168.617 19.7771 168.316 19.9959L165.91 21.744C165.236 22.2333 164.33 21.575 164.588 20.7833L165.507 17.9549C165.622 17.6008 165.496 17.213 165.195 16.9942L162.788 15.2461C162.115 14.7568 162.461 13.6917 163.294 13.6917H166.268C166.64 13.6917 166.97 13.452 167.085 13.098L168.004 10.2695Z" fill="#F59E0B"/>
<path d="M183.983 10.2695C184.24 9.47787 185.36 9.47787 185.618 10.2695L186.537 13.098C186.652 13.452 186.982 13.6917 187.354 13.6917H190.328C191.16 13.6917 191.506 14.7568 190.833 15.2461L188.427 16.9942C188.126 17.213 188 17.6008 188.115 17.9549L189.034 20.7833C189.291 21.575 188.385 22.2333 187.712 21.744L185.306 19.9959C185.004 19.7771 184.597 19.7771 184.295 19.9959L181.889 21.744C181.216 22.2333 180.31 21.575 180.567 20.7833L181.486 17.9549C181.601 17.6008 181.475 17.213 181.174 16.9942L178.768 15.2461C178.095 14.7568 178.441 13.6917 179.273 13.6917H182.247C182.619 13.6917 182.949 13.452 183.064 13.098L183.983 10.2695Z" fill="#F59E0B"/>
</g>
</svg>
